<svg width="240" height="240" viewBox="0 0 240 240" fill="none" xmlns="http://www.w3.org/2000/svg">
<path d="M160.202 77.9978L173.457 64.7427C179.081 59.1192 179.136 49.8725 172.588 45.359C157.795 35.1625 139.632 30 120 30C100.448 30 82.3526 35.6776 67.5927 46.0295C60.9913 50.6594 61.1332 60.0499 66.9453 65.6388L79.7979 77.9979C84 68.25 103.597 60.6 120 60.6C136.403 60.6 157.35 68.25 160.202 77.9978Z" fill="#AE0F0A"/>
<path d="M162.002 160.202L175.257 173.457C180.881 179.081 190.127 179.136 194.641 172.588C204.838 157.795 210 139.632 210 120C210 100.448 204.322 82.3526 193.971 67.5928C189.341 60.9913 179.95 61.1332 174.361 66.9453L162.002 79.7979C171.75 84 179.4 103.597 179.4 120C179.4 136.403 171.75 157.35 162.002 160.202Z" fill="#AE0F0A"/>
<path d="M89.25 160.05C89.25 157.813 87.8733 156 86.175 156C84.4767 156 83.1 157.813 83.1 160.05C83.1 161.517 83.9551 162.765 84.2636 163.216C84.3371 163.323 84.3795 163.385 84.3722 163.394C93.9997 171.697 106.43 176.7 120 176.7C133.57 176.7 146 171.697 155.628 163.394C155.62 163.385 155.663 163.323 155.736 163.216C156.045 162.765 156.9 161.517 156.9 160.05C156.9 157.813 155.523 156 153.825 156C152.127 156 150.75 157.813 150.75 160.05C150.75 161.257 151.151 162.34 151.786 163.082C142.949 169.935 131.938 174 120 174C108.062 174 97.0508 169.935 88.2136 163.082C88.8493 162.34 89.25 161.257 89.25 160.05Z" fill="#AE0F0A"/>
<path d="M66.5428 175.257L79.7979 162.002C82.65 171.75 103.597 179.4 120 179.4C136.403 179.4 156 171.75 160.202 162.002L173.055 174.361C178.867 179.95 179.009 189.341 172.407 193.971C157.647 204.322 139.552 210 120 210C100.368 210 82.2048 204.838 67.412 194.641C60.864 190.127 60.9192 180.881 66.5428 175.257Z" fill="#AE0F0A"/>
<path d="M160.05 150.75C157.813 150.75 156 152.127 156 153.825C156 155.523 157.813 156.9 160.05 156.9C161.517 156.9 162.765 156.045 163.216 155.736C163.323 155.663 163.385 155.62 163.394 155.628C171.697 146 176.7 133.57 176.7 120C176.7 106.43 171.697 93.9997 163.394 84.3722C163.385 84.3796 163.323 84.3371 163.216 84.2637C162.765 83.9552 161.517 83.1 160.05 83.1C157.813 83.1 156 84.4767 156 86.175C156 87.8733 157.813 89.25 160.05 89.25C161.257 89.25 162.34 88.8493 163.082 88.2137C169.935 97.0508 174 108.062 174 120C174 131.938 169.935 142.949 163.082 151.786C162.34 151.151 161.257 150.75 160.05 150.75Z" fill="#AE0F0A"/>
<path d="M150.75 79.95C150.75 82.1868 152.127 84 153.825 84C155.523 84 156.9 82.1868 156.9 79.95C156.9 78.4828 156.045 77.2347 155.736 76.7844C155.663 76.6773 155.62 76.6153 155.628 76.6063C146 68.3028 133.57 63.3 120 63.3C106.43 63.3 93.9997 68.3028 84.3722 76.6063C84.3795 76.6153 84.3371 76.6773 84.2636 76.7844C83.9551 77.2348 83.1 78.4828 83.1 79.95C83.1 82.1868 84.4767 84 86.175 84C87.8733 84 89.25 82.1868 89.25 79.95C89.25 78.7433 88.8493 77.6599 88.2136 76.918C97.0508 70.0652 108.062 66 120 66C131.938 66 142.949 70.0652 151.786 76.9179C151.151 77.6599 150.75 78.7433 150.75 79.95Z" fill="#AE0F0A"/>
<path d="M77.9978 79.7979L64.7427 66.5428C59.1192 60.9192 49.8725 60.864 45.359 67.4121C35.1625 82.2048 30 100.368 30 120C30 139.552 35.6775 157.647 46.0295 172.407C50.6594 179.009 60.0499 178.867 65.6388 173.055L77.9978 160.202C68.25 156 60.6 136.403 60.6 120C60.6 103.597 68.25 82.65 77.9978 79.7979Z" fill="#AE0F0A"/>
<path d="M79.95 89.25C82.1868 89.25 84 87.8733 84 86.175C84 84.4767 82.1868 83.1 79.95 83.1C78.4828 83.1 77.2347 83.9551 76.7844 84.2636C76.6772 84.3371 76.6153 84.3795 76.6063 84.3722C68.3028 93.9997 63.3 106.43 63.3 120C63.3 133.57 68.3028 146 76.6063 155.628C76.6152 155.62 76.6772 155.663 76.7844 155.736C77.2347 156.045 78.4828 156.9 79.95 156.9C82.1868 156.9 84 155.523 84 153.825C84 152.127 82.1868 150.75 79.95 150.75C78.7433 150.75 77.6599 151.151 76.9179 151.786C70.0652 142.949 66 131.938 66 120C66 108.062 70.0652 97.0508 76.9179 88.2136C77.6599 88.8493 78.7433 89.25 79.95 89.25Z" fill="#AE0F0A"/>
</svg>
