<svg width="240" height="240" viewBox="0 0 240 240" fill="none" xmlns="http://www.w3.org/2000/svg">
<path d="M84.6124 66.1167C89.3641 72.8629 103.176 91.4714 110.282 100.998C112.448 99.8807 114.832 99.1252 117.354 98.8118V79.3053C117.354 77.8485 118.538 76.6676 120 76.6676C121.462 76.6676 122.646 77.8485 122.646 79.3053V98.8118C125.168 99.1252 127.552 99.8807 129.718 100.998C136.824 91.4714 150.636 72.8629 155.388 66.1167C161.58 57.3243 159.811 46.7734 146.541 36.2225C135.924 27.7818 124.423 19.2239 120 16C115.577 19.2239 104.076 27.7818 93.4593 36.2225C80.189 46.7734 78.4196 57.3243 84.6124 66.1167Z" fill="#AE0F0A"/>
<path d="M57.5542 137.458C65.4152 135.007 87.3163 127.573 98.5393 123.734C98.1499 121.321 98.1708 118.812 98.653 116.308L80.169 110.28C78.7886 109.83 78.0357 108.334 78.4874 106.939C78.9391 105.544 80.4242 104.778 81.8046 105.228L100.289 111.256C101.365 108.945 102.818 106.903 104.545 105.181C97.7141 95.4543 84.3492 76.5198 79.4249 69.8994C73.0071 61.2711 62.4625 59.6997 48.364 69.1064C37.0851 76.6318 25.4218 84.9654 21 88.1916C22.688 93.4102 27.2433 107.033 31.9609 119.775C37.858 135.702 47.309 140.652 57.5542 137.458Z" fill="#AE0F0A"/>
<path d="M116.794 185.331C116.901 177.07 116.624 153.867 116.455 141.968C114.048 141.594 111.677 140.799 109.453 139.565L98.0296 155.346C97.1764 156.525 95.5263 156.781 94.3438 155.919C93.1613 155.057 92.8943 153.402 93.7475 152.224L105.171 136.443C103.315 134.701 101.828 132.684 100.73 130.502C89.4026 134.017 67.3307 140.924 59.5357 143.578C49.3764 147.038 44.6289 156.618 49.1858 172.982C52.8314 186.074 57.124 199.782 58.8146 205C64.2813 205.001 78.5976 204.863 92.1295 204.297C109.044 203.59 116.655 196.098 116.794 185.331Z" fill="#AE0F0A"/>
<path d="M180.464 143.578C172.669 140.924 150.597 134.017 139.27 130.502C138.172 132.684 136.685 134.701 134.829 136.443L146.253 152.224C147.106 153.402 146.839 155.057 145.656 155.919C144.474 156.781 142.824 156.525 141.97 155.346L130.547 139.565C128.323 140.799 125.952 141.594 123.545 141.968C123.376 153.867 123.099 177.07 123.206 185.331C123.345 196.098 130.956 203.59 147.871 204.297C161.402 204.863 175.719 205.001 181.185 205C182.876 199.782 187.169 186.074 190.814 172.982C195.371 156.618 190.624 147.038 180.464 143.578Z" fill="#AE0F0A"/>
<path d="M160.575 69.8995C155.651 76.5198 142.286 95.4543 135.455 105.181C137.183 106.903 138.635 108.945 139.711 111.256L158.195 105.228C159.576 104.778 161.061 105.544 161.513 106.939C161.964 108.334 161.211 109.83 159.831 110.28L141.347 116.308C141.829 118.812 141.85 121.321 141.461 123.734C152.684 127.573 174.585 135.007 182.446 137.458C192.691 140.652 202.142 135.702 208.039 119.775C212.757 107.033 217.312 93.4102 219 88.1916C214.578 84.9654 202.915 76.6318 191.636 69.1064C177.537 59.6997 166.993 61.2711 160.575 69.8995Z" fill="#AE0F0A"/>
<path d="M120 136.414C128.77 136.414 135.879 129.278 135.879 120.477C135.879 111.675 128.77 104.54 120 104.54C111.23 104.54 104.121 111.675 104.121 120.477C104.121 129.278 111.23 136.414 120 136.414Z" fill="#AE0F0A"/>
</svg>
