<svg width="240" height="240" viewBox="0 0 240 240" fill="none" xmlns="http://www.w3.org/2000/svg">
<path d="M105.275 37.0922C101.225 42.8362 101.747 48.7598 102.514 51.0036L116.479 102.972C117.615 102.735 118.793 102.61 120 102.61C121.207 102.61 122.384 102.735 123.521 102.972L137.486 51.0036C138.253 48.7598 138.775 42.8362 134.725 37.0922C128.059 27.636 111.941 27.636 105.275 37.0922Z" fill="#AE0F0A"/>
<path d="M135.315 120C135.315 128.458 128.458 135.315 120 135.315C111.542 135.315 104.685 128.458 104.685 120C104.685 111.542 111.542 104.685 120 104.685C128.458 104.685 135.315 111.542 135.315 120Z" fill="#AE0F0A"/>
<path d="M70.3582 68.9904C68.5721 67.4307 65.1587 62.5615 65.7936 55.5623C66.8387 44.0398 80.797 35.981 91.2984 40.8371C97.6773 43.7869 100.187 49.1776 100.645 51.5042L114.535 103.493C113.432 103.856 112.35 104.337 111.305 104.94C110.26 105.544 109.302 106.24 108.437 107.013L70.3582 68.9904Z" fill="#AE0F0A"/>
<path d="M40.837 91.2985C43.7868 97.6775 49.1775 100.188 51.5041 100.645L103.492 114.535C103.856 113.432 104.337 112.35 104.94 111.305C105.543 110.26 106.24 109.302 107.013 108.437L68.9903 70.3583C67.4306 68.5722 62.5614 65.1588 55.5622 65.7937C44.0397 66.8389 35.9809 80.7971 40.837 91.2985Z" fill="#AE0F0A"/>
<path d="M51.0034 137.486C48.7597 138.253 42.8361 138.775 37.092 134.725C27.6358 128.059 27.6358 111.941 37.092 105.275C42.8361 101.225 48.7597 101.747 51.0034 102.514L102.971 116.479C102.735 117.616 102.61 118.793 102.61 120C102.61 121.207 102.735 122.385 102.971 123.521L51.0034 137.486Z" fill="#AE0F0A"/>
<path d="M55.5622 174.206C62.5614 174.841 67.4306 171.428 68.9903 169.642L107.013 131.563C106.24 130.698 105.543 129.74 104.94 128.695C104.337 127.65 103.856 126.568 103.492 125.465L51.5041 139.355C49.1775 139.812 43.7868 142.323 40.837 148.702C35.9809 159.203 44.0397 173.161 55.5622 174.206Z" fill="#AE0F0A"/>
<path d="M100.645 188.496C100.187 190.822 97.6773 196.213 91.2984 199.163C80.797 204.019 66.8387 195.96 65.7935 184.438C65.1586 177.438 68.5721 172.569 70.3582 171.01L108.437 132.987C109.302 133.76 110.26 134.456 111.305 135.06C112.35 135.663 113.432 136.144 114.535 136.508L100.645 188.496Z" fill="#AE0F0A"/>
<path d="M134.725 202.908C138.775 197.164 138.253 191.24 137.486 188.996L123.521 137.029C122.384 137.265 121.207 137.39 120 137.39C118.793 137.39 117.615 137.265 116.479 137.029L102.514 188.996C101.747 191.24 101.225 197.164 105.275 202.908C111.941 212.364 128.059 212.364 134.725 202.908Z" fill="#AE0F0A"/>
<path d="M169.642 171.01C171.428 172.569 174.841 177.438 174.206 184.438C173.161 195.96 159.203 204.019 148.701 199.163C142.322 196.213 139.812 190.822 139.355 188.496L125.465 136.508C126.567 136.144 127.65 135.663 128.695 135.06C129.74 134.456 130.698 133.76 131.563 132.987L169.642 171.01Z" fill="#AE0F0A"/>
<path d="M199.163 148.702C196.213 142.323 190.822 139.812 188.496 139.355L136.507 125.465C136.144 126.568 135.663 127.65 135.06 128.695C134.456 129.74 133.76 130.698 132.987 131.563L171.009 169.642C172.569 171.428 177.438 174.841 184.438 174.206C195.96 173.161 204.019 159.203 199.163 148.702Z" fill="#AE0F0A"/>
<path d="M188.996 102.514C191.24 101.747 197.164 101.225 202.908 105.275C212.364 111.941 212.364 128.059 202.908 134.725C197.164 138.775 191.24 138.253 188.996 137.486L137.028 123.521C137.265 122.385 137.389 121.207 137.389 120C137.389 118.793 137.265 117.616 137.028 116.479L188.996 102.514Z" fill="#AE0F0A"/>
<path d="M184.438 65.7937C177.438 65.1588 172.569 68.5722 171.009 70.3583L132.987 108.437C133.76 109.302 134.456 110.26 135.06 111.305C135.663 112.35 136.144 113.432 136.507 114.535L188.496 100.645C190.822 100.188 196.213 97.6775 199.163 91.2985C204.019 80.7971 195.96 66.8389 184.438 65.7937Z" fill="#AE0F0A"/>
<path d="M139.355 51.5042C139.812 49.1776 142.322 43.7869 148.701 40.8371C159.203 35.981 173.161 44.0398 174.206 55.5623C174.841 62.5615 171.428 67.4307 169.642 68.9904L131.563 107.013C130.697 106.24 129.74 105.544 128.695 104.94C127.65 104.337 126.567 103.856 125.465 103.493L139.355 51.5042Z" fill="#AE0F0A"/>
</svg>
