<svg width="240" height="240" viewBox="0 0 240 240" fill="none" xmlns="http://www.w3.org/2000/svg">
<path fill-rule="evenodd" clip-rule="evenodd" d="M120 210C169.706 210 210 169.706 210 120C210 70.2944 169.706 30 120 30C70.2944 30 30 70.2944 30 120C30 169.706 70.2944 210 120 210ZM112.711 105.748C107.382 98.6035 97.0231 84.6472 93.4593 79.5875C88.8147 72.9932 90.1417 65.08 100.095 57.1669C108.057 50.8364 116.682 44.4179 120 42C123.318 44.4179 131.943 50.8364 139.905 57.1669C149.858 65.08 151.185 72.9932 146.541 79.5875C142.977 84.6472 132.618 98.6035 127.289 105.748C125.664 104.911 123.876 104.344 121.985 104.109V89.479C121.985 88.3864 121.096 87.5007 120 87.5007C118.904 87.5007 118.015 88.3864 118.015 89.479V104.109C116.124 104.344 114.336 104.911 112.711 105.748ZM103.904 122.8C95.4872 125.68 79.0614 131.255 73.1657 133.093C65.4818 135.489 58.3935 131.777 53.9707 119.831C50.4325 110.275 47.016 100.058 45.75 96.1437C49.0664 93.7241 57.8138 87.4739 66.273 81.8298C76.8469 74.7747 84.7553 75.9533 89.5687 82.4246C93.2619 87.3898 103.286 101.591 108.409 108.886C107.113 110.177 106.024 111.709 105.216 113.442L91.3535 108.921C90.3182 108.583 89.2043 109.158 88.8655 110.204C88.5268 111.251 89.0915 112.372 90.1268 112.71L103.99 117.231C103.628 119.109 103.612 120.991 103.904 122.8ZM117.595 168.998C117.675 162.803 117.468 145.401 117.341 136.476C115.536 136.196 113.758 135.599 112.09 134.674L103.522 146.51C102.882 147.394 101.645 147.586 100.758 146.939C99.871 146.292 99.6708 145.052 100.311 144.168L108.878 132.332C107.486 131.026 106.371 129.513 105.548 127.877C97.0519 130.513 80.498 135.693 74.6518 137.684C67.0323 140.278 63.4717 147.463 66.8894 159.737C69.6236 169.555 72.843 179.837 74.111 183.75C78.211 183.751 88.9482 183.647 99.0971 183.223C111.783 182.692 117.491 177.073 117.595 168.998ZM134.452 127.877C142.948 130.513 159.502 135.693 165.348 137.684C172.968 140.278 176.528 147.463 173.111 159.737C170.376 169.555 167.157 179.837 165.889 183.75C161.789 183.751 151.052 183.647 140.903 183.223C128.217 182.692 122.509 177.073 122.405 168.998C122.325 162.803 122.532 145.401 122.659 136.476C124.464 136.196 126.242 135.599 127.91 134.674L136.478 146.51C137.118 147.394 138.355 147.586 139.242 146.939C140.129 146.292 140.329 145.052 139.689 144.168L131.122 132.332C132.514 131.026 133.629 129.513 134.452 127.877ZM150.431 82.4246C146.738 87.3899 136.714 101.591 131.591 108.886C132.887 110.177 133.976 111.709 134.784 113.442L148.647 108.921C149.682 108.583 150.796 109.158 151.134 110.204C151.473 111.251 150.909 112.373 149.873 112.71L136.01 117.231C136.372 119.109 136.388 120.991 136.096 122.8C144.513 125.68 160.939 131.255 166.834 133.093C174.518 135.489 181.607 131.777 186.029 119.831C189.568 110.275 192.984 100.058 194.25 96.1437C190.934 93.7241 182.186 87.4739 173.727 81.8298C163.153 74.7748 155.245 75.9533 150.431 82.4246ZM131.909 120.357C131.909 126.959 126.577 132.31 120 132.31C113.423 132.31 108.091 126.959 108.091 120.357C108.091 113.756 113.423 108.405 120 108.405C126.577 108.405 131.909 113.756 131.909 120.357Z" fill="#AE0F0A"/>
</svg>
