<svg width="240" height="240" viewBox="0 0 240 240" fill="none" xmlns="http://www.w3.org/2000/svg">
<path d="M110.207 101.97C99.5927 87.9149 80.6035 62.6696 79.4491 60.4287C77.8416 57.308 77.8416 54.8513 77.8416 51.8128C77.8416 38.6613 88.51 28 101.67 28C109.04 28 115.629 31.3438 120 36.5962C124.371 31.3438 130.96 28 138.33 28C151.49 28 162.158 38.6613 162.158 51.8128C162.158 54.8513 162.158 57.308 160.551 60.4288C159.396 62.6699 140.407 87.915 129.793 101.97C127.654 100.781 125.276 99.9684 122.749 99.6241V82.9526C122.749 81.4351 121.518 80.205 120 80.205C118.482 80.205 117.251 81.4351 117.251 82.9526V99.6241C114.724 99.9684 112.346 100.781 110.207 101.97Z" fill="#AE0F0A"/>
<path d="M100.208 123.451C83.5512 129.196 53.6574 139.442 51.1681 139.847C47.7014 140.411 45.3633 139.651 42.4716 138.712C29.9555 134.648 23.106 121.214 27.1727 108.707C29.4502 101.702 34.6685 96.4731 41.0178 93.9419C37.3699 88.1646 36.2236 80.8693 38.5011 73.8645C42.5678 61.3568 56.0109 54.5118 68.527 58.5758C71.4187 59.5147 73.7568 60.2739 76.23 62.7662C78.006 64.5559 96.1636 90.4047 106.26 104.836C104.467 106.501 102.959 108.51 101.851 110.805L85.9844 105.654C84.5402 105.185 82.9891 105.975 82.5199 107.418C82.0506 108.861 82.841 110.411 84.2851 110.88L100.151 116.032C99.6981 118.54 99.7362 121.051 100.208 123.451Z" fill="#AE0F0A"/>
<path d="M117.56 139.593C117.881 157.199 118.395 188.777 118.01 191.268C117.475 194.737 116.03 196.724 114.243 199.182C106.508 209.822 91.6061 212.181 80.9593 204.45C74.9967 200.121 71.6331 193.546 71.1863 186.729C64.5608 188.411 57.2637 187.246 51.3011 182.917C40.6543 175.187 38.2941 160.295 46.0295 149.655C47.8167 147.197 49.2617 145.209 52.3978 143.629C54.6499 142.494 84.861 133.224 101.715 128.088C102.746 130.307 104.192 132.361 106.034 134.124L96.2277 147.611C95.3352 148.839 95.6075 150.557 96.836 151.449C98.0645 152.341 99.7839 152.069 100.676 150.841L110.482 137.354C112.729 138.559 115.13 139.299 117.56 139.593Z" fill="#AE0F0A"/>
<path d="M138.285 128.088C155.139 133.224 185.35 142.494 187.602 143.629C190.738 145.209 192.183 147.197 193.97 149.655C201.706 160.295 199.346 175.187 188.699 182.917C182.736 187.246 175.439 188.411 168.814 186.729C168.367 193.546 165.003 200.121 159.041 204.45C148.394 212.181 133.492 209.822 125.757 199.182C123.97 196.724 122.525 194.737 121.99 191.267C121.605 188.776 122.119 157.199 122.44 139.593C124.87 139.299 127.271 138.559 129.518 137.354L139.324 150.841C140.216 152.069 141.935 152.341 143.164 151.449C144.392 150.557 144.665 148.839 143.772 147.611L133.966 134.124C135.808 132.361 137.254 130.307 138.285 128.088Z" fill="#AE0F0A"/>
<path d="M133.74 104.836C143.836 90.4048 161.994 64.5558 163.77 62.7661C166.243 60.274 168.581 59.5148 171.473 58.5758C183.989 54.5118 197.432 61.3568 201.499 73.8646C203.776 80.8694 202.63 88.1647 198.982 93.942C205.332 96.4731 210.55 101.702 212.827 108.707C216.894 121.214 210.044 134.648 197.528 138.712C194.637 139.651 192.299 140.411 188.832 139.847C186.342 139.442 156.449 129.196 139.792 123.451C140.264 121.051 140.302 118.54 139.849 116.032L155.715 110.88C157.159 110.411 157.949 108.861 157.48 107.418C157.011 105.975 155.46 105.185 154.016 105.654L138.149 110.806C137.041 108.51 135.533 106.501 133.74 104.836Z" fill="#AE0F0A"/>
<path d="M120 134.242C128.099 134.242 134.664 127.681 134.664 119.588C134.664 111.494 128.099 104.934 120 104.934C111.901 104.934 105.336 111.494 105.336 119.588C105.336 127.681 111.901 134.242 120 134.242Z" fill="#AE0F0A"/>
</svg>
