<svg width="390" height="71" viewBox="0 0 390 71" fill="none" xmlns="http://www.w3.org/2000/svg">
<path d="M50.376 34.344H64.584V69H52.872V64.968C48.2 68.424 42.184 70.152 34.824 70.152C28.616 70.152 22.92 68.808 17.736 66.12C12.552 63.432 8.424 59.528 5.352 54.408C2.28 49.224 0.744 43.08 0.744 35.976C0.744 29.128 2.312 23.048 5.448 17.736C8.648 12.36 13.064 8.168 18.696 5.16C24.328 2.152 30.664 0.647999 37.704 0.647999C43.592 0.647999 48.936 1.64 53.736 3.62399C58.536 5.608 62.568 8.488 65.832 12.264L55.848 21.48C51.048 16.424 45.256 13.896 38.472 13.896C34.184 13.896 30.376 14.824 27.048 16.68C23.72 18.472 21.128 21.032 19.272 24.36C17.416 27.688 16.488 31.528 16.488 35.88C16.488 40.424 17.384 44.296 19.176 47.496C21.032 50.696 23.496 53.128 26.568 54.792C29.64 56.392 33 57.192 36.648 57.192C42.088 57.192 46.664 55.656 50.376 52.584V34.344ZM133.943 63.24C130.743 65.416 126.711 67.112 121.847 68.328C117.047 69.544 111.927 70.152 106.487 70.152C99.7025 70.152 93.9425 69.32 89.2065 67.656C84.4705 65.928 80.8865 63.56 78.4545 60.552C76.0225 57.48 74.8065 53.992 74.8065 50.088C74.8065 46.504 75.7985 43.336 77.7825 40.584C79.7665 37.832 82.4865 35.784 85.9425 34.44C83.3185 33.032 81.2705 31.112 79.7985 28.68C78.3905 26.248 77.6865 23.528 77.6865 20.52C77.6865 16.872 78.8065 13.544 81.0465 10.536C83.2865 7.528 86.6785 5.128 91.2225 3.336C95.7665 1.544 101.335 0.647999 107.927 0.647999C112.279 0.647999 116.535 1.096 120.695 1.992C124.855 2.824 128.471 3.97599 131.543 5.44799L127.223 17.352C121.335 14.6 115.095 13.224 108.503 13.224C103.511 13.224 99.7345 13.992 97.1745 15.528C94.6785 17 93.4305 19.016 93.4305 21.576C93.4305 23.944 94.2625 25.768 95.9265 27.048C97.6545 28.264 100.247 28.872 103.703 28.872H122.039V41.16H102.743C98.8385 41.16 95.8305 41.832 93.7185 43.176C91.6065 44.52 90.5505 46.472 90.5505 49.032C90.5505 51.72 91.8945 53.832 94.5825 55.368C97.3345 56.84 101.527 57.576 107.159 57.576C111.127 57.576 115.095 57.064 119.062 56.04C123.031 54.952 126.391 53.448 129.143 51.528L133.943 63.24ZM166.102 14.28V56.52H177.718V69H138.838V56.52H150.55V14.28H138.838V1.8H177.718V14.28H166.102ZM211.548 70.152C206.236 70.152 201.084 69.448 196.092 68.04C191.164 66.568 187.196 64.68 184.188 62.376L189.468 50.664C192.348 52.776 195.772 54.472 199.74 55.752C203.708 57.032 207.676 57.672 211.644 57.672C216.06 57.672 219.324 57.032 221.436 55.752C223.548 54.408 224.604 52.648 224.604 50.472C224.604 48.872 223.964 47.56 222.684 46.536C221.468 45.448 219.868 44.584 217.884 43.944C215.964 43.304 213.34 42.6 210.012 41.832C204.892 40.616 200.7 39.4 197.436 38.184C194.172 36.968 191.356 35.016 188.988 32.328C186.684 29.64 185.532 26.056 185.532 21.576C185.532 17.672 186.588 14.152 188.7 11.016C190.812 7.816 193.98 5.288 198.204 3.432C202.492 1.576 207.708 0.647999 213.852 0.647999C218.14 0.647999 222.332 1.16 226.428 2.184C230.524 3.208 234.108 4.68 237.18 6.6L232.38 18.408C226.172 14.888 219.964 13.128 213.756 13.128C209.404 13.128 206.172 13.832 204.06 15.24C202.012 16.648 200.988 18.504 200.988 20.808C200.988 23.112 202.172 24.84 204.54 25.992C206.972 27.08 210.652 28.168 215.58 29.256C220.7 30.472 224.892 31.688 228.156 32.904C231.42 34.12 234.204 36.04 236.508 38.664C238.876 41.288 240.06 44.84 240.06 49.32C240.06 53.16 238.972 56.68 236.796 59.88C234.684 63.016 231.484 65.512 227.196 67.368C222.908 69.224 217.692 70.152 211.548 70.152ZM312.319 1.8V69H296.767V41.448H266.239V69H250.687V1.8H266.239V28.296H296.767V1.8H312.319Z" fill="#F6F6FE"/>
<path d="M358.458 0.647999C364.666 0.647999 370.074 1.864 374.682 4.296C379.29 6.728 382.874 10.312 385.434 15.048C387.994 19.784 389.274 25.512 389.274 32.232V69H373.722V52.872H343.002V69H327.642V32.232C327.642 25.512 328.922 19.784 331.482 15.048C334.042 10.312 337.626 6.728 342.234 4.296C346.842 1.864 352.25 0.647999 358.458 0.647999ZM373.722 40.392V30.792C373.722 25.224 372.346 21.032 369.594 18.216C366.842 15.336 363.098 13.896 358.362 13.896C353.562 13.896 349.786 15.336 347.034 18.216C344.346 21.032 343.002 25.224 343.002 30.792V40.392H373.722Z" fill="#AE0F0A"/>
</svg>
