<svg width="902" height="337" viewBox="0 0 902 337" fill="none" xmlns="http://www.w3.org/2000/svg">
<path d="M226.376 157.344H240.584V192H228.872V187.968C224.2 191.424 218.184 193.152 210.824 193.152C204.616 193.152 198.92 191.808 193.736 189.12C188.552 186.432 184.424 182.528 181.352 177.408C178.28 172.224 176.744 166.08 176.744 158.976C176.744 152.128 178.312 146.048 181.448 140.736C184.648 135.36 189.064 131.168 194.696 128.16C200.328 125.152 206.664 123.648 213.704 123.648C219.592 123.648 224.936 124.64 229.736 126.624C234.536 128.608 238.568 131.488 241.832 135.264L231.848 144.48C227.048 139.424 221.256 136.896 214.472 136.896C210.184 136.896 206.376 137.824 203.048 139.68C199.72 141.472 197.128 144.032 195.272 147.36C193.416 150.688 192.488 154.528 192.488 158.88C192.488 163.424 193.384 167.296 195.176 170.496C197.032 173.696 199.496 176.128 202.568 177.792C205.64 179.392 209 180.192 212.648 180.192C218.088 180.192 222.664 178.656 226.376 175.584V157.344ZM309.943 186.24C306.743 188.416 302.711 190.112 297.847 191.328C293.047 192.544 287.927 193.152 282.487 193.152C275.703 193.152 269.943 192.32 265.207 190.656C260.471 188.928 256.887 186.56 254.455 183.552C252.023 180.48 250.807 176.992 250.807 173.088C250.807 169.504 251.799 166.336 253.783 163.584C255.767 160.832 258.487 158.784 261.943 157.44C259.319 156.032 257.271 154.112 255.799 151.68C254.391 149.248 253.687 146.528 253.687 143.52C253.687 139.872 254.807 136.544 257.047 133.536C259.287 130.528 262.679 128.128 267.223 126.336C271.767 124.544 277.335 123.648 283.927 123.648C288.279 123.648 292.535 124.096 296.695 124.992C300.855 125.824 304.471 126.976 307.543 128.448L303.223 140.352C297.335 137.6 291.095 136.224 284.503 136.224C279.511 136.224 275.735 136.992 273.175 138.528C270.679 140 269.431 142.016 269.431 144.576C269.431 146.944 270.263 148.768 271.927 150.048C273.655 151.264 276.247 151.872 279.703 151.872H298.039V164.16H278.743C274.839 164.16 271.831 164.832 269.719 166.176C267.607 167.52 266.551 169.472 266.551 172.032C266.551 174.72 267.895 176.832 270.583 178.368C273.335 179.84 277.527 180.576 283.159 180.576C287.127 180.576 291.095 180.064 295.062 179.04C299.031 177.952 302.391 176.448 305.143 174.528L309.943 186.24ZM342.102 137.28V179.52H353.718V192H314.838V179.52H326.55V137.28H314.838V124.8H353.718V137.28H342.102ZM387.548 193.152C382.236 193.152 377.084 192.448 372.092 191.04C367.164 189.568 363.196 187.68 360.188 185.376L365.468 173.664C368.348 175.776 371.772 177.472 375.74 178.752C379.708 180.032 383.676 180.672 387.644 180.672C392.06 180.672 395.324 180.032 397.436 178.752C399.548 177.408 400.604 175.648 400.604 173.472C400.604 171.872 399.964 170.56 398.684 169.536C397.468 168.448 395.868 167.584 393.884 166.944C391.964 166.304 389.34 165.6 386.012 164.832C380.892 163.616 376.7 162.4 373.436 161.184C370.172 159.968 367.356 158.016 364.988 155.328C362.684 152.64 361.532 149.056 361.532 144.576C361.532 140.672 362.588 137.152 364.7 134.016C366.812 130.816 369.98 128.288 374.204 126.432C378.492 124.576 383.708 123.648 389.852 123.648C394.14 123.648 398.332 124.16 402.428 125.184C406.524 126.208 410.108 127.68 413.18 129.6L408.38 141.408C402.172 137.888 395.964 136.128 389.756 136.128C385.404 136.128 382.172 136.832 380.06 138.24C378.012 139.648 376.988 141.504 376.988 143.808C376.988 146.112 378.172 147.84 380.54 148.992C382.972 150.08 386.652 151.168 391.58 152.256C396.7 153.472 400.892 154.688 404.156 155.904C407.42 157.12 410.204 159.04 412.508 161.664C414.876 164.288 416.06 167.84 416.06 172.32C416.06 176.16 414.972 179.68 412.796 182.88C410.684 186.016 407.484 188.512 403.196 190.368C398.908 192.224 393.692 193.152 387.548 193.152ZM488.319 124.8V192H472.767V164.448H442.239V192H426.687V124.8H442.239V151.296H472.767V124.8H488.319ZM534.458 123.648C540.666 123.648 546.074 124.864 550.682 127.296C555.29 129.728 558.874 133.312 561.434 138.048C563.994 142.784 565.274 148.512 565.274 155.232V192H549.722V175.872H519.002V192H503.642V155.232C503.642 148.512 504.922 142.784 507.482 138.048C510.042 133.312 513.626 129.728 518.234 127.296C522.842 124.864 528.25 123.648 534.458 123.648ZM549.722 163.392V153.792C549.722 148.224 548.346 144.032 545.594 141.216C542.842 138.336 539.098 136.896 534.362 136.896C529.562 136.896 525.786 138.336 523.034 141.216C520.346 144.032 519.002 148.224 519.002 153.792V163.392H549.722Z" fill="#F6F6FE"/>
<path d="M396.672 90.52V118.68H404.416V127H378.496V118.68H386.304V90.52H378.496V82.2H404.416V90.52H396.672ZM435.994 81.432C441.327 81.432 445.487 83.1173 448.474 86.488C451.46 89.816 452.954 94.5733 452.954 100.76V127H442.586V101.08C442.586 97.496 441.732 94.808 440.026 93.016C438.362 91.1813 436.036 90.264 433.05 90.264C429.892 90.264 427.354 91.2453 425.434 93.208C423.556 95.128 422.618 97.9867 422.618 101.784V127H412.25V82.2H422.298V87.64C423.834 85.592 425.754 84.056 428.058 83.032C430.362 81.9653 433.007 81.432 435.994 81.432ZM495.827 94.744C491.987 92.5253 487.87 91.096 483.475 90.456V127H473.107V90.456C468.712 91.096 464.574 92.5253 460.691 94.744L457.171 87C460.243 85.1653 463.571 83.7787 467.155 82.84C470.739 81.9013 474.43 81.432 478.227 81.432C482.067 81.432 485.779 81.9013 489.363 82.84C492.99 83.7787 496.318 85.1653 499.347 87L495.827 94.744ZM539.983 123.16C537.849 124.611 535.161 125.741 531.919 126.552C528.719 127.363 525.305 127.768 521.679 127.768C517.156 127.768 513.316 127.213 510.159 126.104C507.001 124.952 504.612 123.373 502.991 121.368C501.369 119.32 500.559 116.995 500.559 114.392C500.559 112.003 501.22 109.891 502.543 108.056C503.865 106.221 505.679 104.856 507.983 103.96C506.233 103.021 504.868 101.741 503.887 100.12C502.948 98.4987 502.479 96.6853 502.479 94.68C502.479 92.248 503.225 90.0293 504.719 88.024C506.212 86.0187 508.473 84.4187 511.503 83.224C514.532 82.0293 518.244 81.432 522.639 81.432C525.54 81.432 528.377 81.7307 531.151 82.328C533.924 82.8827 536.335 83.6507 538.383 84.632L535.503 92.568C531.577 90.7333 527.417 89.816 523.023 89.816C519.695 89.816 517.177 90.328 515.471 91.352C513.807 92.3333 512.975 93.6773 512.975 95.384C512.975 96.9627 513.529 98.1787 514.639 99.032C515.791 99.8427 517.519 100.248 519.823 100.248H532.047V108.44H519.183C516.58 108.44 514.575 108.888 513.167 109.784C511.759 110.68 511.055 111.981 511.055 113.688C511.055 115.48 511.951 116.888 513.743 117.912C515.577 118.893 518.372 119.384 522.127 119.384C524.772 119.384 527.417 119.043 530.062 118.36C532.708 117.635 534.948 116.632 536.783 115.352L539.983 123.16ZM546.062 82.2H556.43V118.552H578.894V127H546.062V82.2ZM584.687 82.2H595.055V118.552H617.519V127H584.687V82.2ZM638.672 90.52V118.68H646.416V127H620.496V118.68H628.304V90.52H620.496V82.2H646.416V90.52H638.672ZM684.209 103.896H693.681V127H685.873V124.312C682.758 126.616 678.748 127.768 673.841 127.768C669.702 127.768 665.905 126.872 662.449 125.08C658.993 123.288 656.241 120.685 654.193 117.272C652.145 113.816 651.121 109.72 651.121 104.984C651.121 100.419 652.166 96.3653 654.257 92.824C656.39 89.24 659.334 86.4453 663.089 84.44C666.844 82.4347 671.068 81.432 675.761 81.432C679.686 81.432 683.249 82.0933 686.449 83.416C689.649 84.7387 692.337 86.6587 694.513 89.176L687.857 95.32C684.657 91.9493 680.796 90.264 676.273 90.264C673.414 90.264 670.876 90.8827 668.657 92.12C666.438 93.3147 664.71 95.0213 663.473 97.24C662.236 99.4587 661.617 102.019 661.617 104.92C661.617 107.949 662.214 110.531 663.409 112.664C664.646 114.797 666.289 116.419 668.337 117.528C670.385 118.595 672.625 119.128 675.057 119.128C678.684 119.128 681.734 118.104 684.209 116.056V103.896ZM739.92 123.16C737.787 124.611 735.099 125.741 731.856 126.552C728.656 127.363 725.243 127.768 721.616 127.768C717.093 127.768 713.253 127.213 710.096 126.104C706.939 124.952 704.549 123.373 702.928 121.368C701.307 119.32 700.496 116.995 700.496 114.392C700.496 112.003 701.157 109.891 702.48 108.056C703.803 106.221 705.616 104.856 707.92 103.96C706.171 103.021 704.805 101.741 703.824 100.12C702.885 98.4987 702.416 96.6853 702.416 94.68C702.416 92.248 703.163 90.0293 704.656 88.024C706.149 86.0187 708.411 84.4187 711.44 83.224C714.469 82.0293 718.181 81.432 722.576 81.432C725.477 81.432 728.315 81.7307 731.088 82.328C733.861 82.8827 736.272 83.6507 738.32 84.632L735.44 92.568C731.515 90.7333 727.355 89.816 722.96 89.816C719.632 89.816 717.115 90.328 715.408 91.352C713.744 92.3333 712.912 93.6773 712.912 95.384C712.912 96.9627 713.467 98.1787 714.576 99.032C715.728 99.8427 717.456 100.248 719.76 100.248H731.984V108.44H719.12C716.517 108.44 714.512 108.888 713.104 109.784C711.696 110.68 710.992 111.981 710.992 113.688C710.992 115.48 711.888 116.888 713.68 117.912C715.515 118.893 718.309 119.384 722.064 119.384C724.709 119.384 727.355 119.043 730 118.36C732.645 117.635 734.885 116.632 736.72 115.352L739.92 123.16ZM769.744 81.432C775.077 81.432 779.237 83.1173 782.224 86.488C785.21 89.816 786.704 94.5733 786.704 100.76V127H776.336V101.08C776.336 97.496 775.482 94.808 773.776 93.016C772.112 91.1813 769.786 90.264 766.8 90.264C763.642 90.264 761.104 91.2453 759.184 93.208C757.306 95.128 756.368 97.9867 756.368 101.784V127H746V82.2H756.048V87.64C757.584 85.592 759.504 84.056 761.808 83.032C764.112 81.9653 766.757 81.432 769.744 81.432ZM818.377 127.768C813.812 127.768 809.673 126.787 805.961 124.824C802.292 122.819 799.39 120.067 797.257 116.568C795.166 113.027 794.121 109.037 794.121 104.6C794.121 100.163 795.166 96.1947 797.257 92.696C799.39 89.1547 802.292 86.4027 805.961 84.44C809.673 82.4347 813.833 81.432 818.441 81.432C822.324 81.432 825.822 82.1147 828.937 83.48C832.094 84.8453 834.74 86.808 836.873 89.368L830.217 95.512C827.188 92.0133 823.433 90.264 818.953 90.264C816.18 90.264 813.705 90.8827 811.529 92.12C809.353 93.3147 807.646 95 806.409 97.176C805.214 99.352 804.617 101.827 804.617 104.6C804.617 107.373 805.214 109.848 806.409 112.024C807.646 114.2 809.353 115.907 811.529 117.144C813.705 118.339 816.18 118.936 818.953 118.936C823.433 118.936 827.188 117.165 830.217 113.624L836.873 119.768C834.74 122.371 832.094 124.355 828.937 125.72C825.78 127.085 822.26 127.768 818.377 127.768ZM879.92 123.16C877.787 124.611 875.099 125.741 871.856 126.552C868.656 127.363 865.243 127.768 861.616 127.768C857.093 127.768 853.253 127.213 850.096 126.104C846.939 124.952 844.549 123.373 842.928 121.368C841.307 119.32 840.496 116.995 840.496 114.392C840.496 112.003 841.157 109.891 842.48 108.056C843.803 106.221 845.616 104.856 847.92 103.96C846.171 103.021 844.805 101.741 843.824 100.12C842.885 98.4987 842.416 96.6853 842.416 94.68C842.416 92.248 843.163 90.0293 844.656 88.024C846.149 86.0187 848.411 84.4187 851.44 83.224C854.469 82.0293 858.181 81.432 862.576 81.432C865.477 81.432 868.315 81.7307 871.088 82.328C873.861 82.8827 876.272 83.6507 878.32 84.632L875.44 92.568C871.515 90.7333 867.355 89.816 862.96 89.816C859.632 89.816 857.115 90.328 855.408 91.352C853.744 92.3333 852.912 93.6773 852.912 95.384C852.912 96.9627 853.467 98.1787 854.576 99.032C855.728 99.8427 857.456 100.248 859.76 100.248H871.984V108.44H859.12C856.517 108.44 854.512 108.888 853.104 109.784C851.696 110.68 850.992 111.981 850.992 113.688C850.992 115.48 851.888 116.888 853.68 117.912C855.515 118.893 858.309 119.384 862.064 119.384C864.709 119.384 867.355 119.043 870 118.36C872.645 117.635 874.885 116.632 876.72 115.352L879.92 123.16Z" fill="#F6F6FE" fill-opacity="0.32"/>
<path d="M487.704 212.2C491.672 212.2 495.107 212.861 498.008 214.184C500.952 215.507 503.213 217.384 504.792 219.816C506.371 222.248 507.16 225.128 507.16 228.456C507.16 231.741 506.371 234.621 504.792 237.096C503.213 239.528 500.952 241.405 498.008 242.728C495.107 244.008 491.672 244.648 487.704 244.648H478.68V257H468.312V212.2H487.704ZM487.128 236.2C490.243 236.2 492.611 235.539 494.232 234.216C495.853 232.851 496.664 230.931 496.664 228.456C496.664 225.939 495.853 224.019 494.232 222.696C492.611 221.331 490.243 220.648 487.128 220.648H478.68V236.2H487.128ZM536.883 257.768C532.232 257.768 528.03 256.765 524.275 254.76C520.563 252.755 517.64 250.003 515.507 246.504C513.416 242.963 512.371 238.995 512.371 234.6C512.371 230.205 513.416 226.259 515.507 222.76C517.64 219.219 520.563 216.445 524.275 214.44C528.03 212.435 532.232 211.432 536.883 211.432C541.534 211.432 545.715 212.435 549.427 214.44C553.139 216.445 556.062 219.219 558.195 222.76C560.328 226.259 561.395 230.205 561.395 234.6C561.395 238.995 560.328 242.963 558.195 246.504C556.062 250.003 553.139 252.755 549.427 254.76C545.715 256.765 541.534 257.768 536.883 257.768ZM536.883 248.936C539.528 248.936 541.918 248.339 544.051 247.144C546.184 245.907 547.848 244.2 549.043 242.024C550.28 239.848 550.899 237.373 550.899 234.6C550.899 231.827 550.28 229.352 549.043 227.176C547.848 225 546.184 223.315 544.051 222.12C541.918 220.883 539.528 220.264 536.883 220.264C534.238 220.264 531.848 220.883 529.715 222.12C527.582 223.315 525.896 225 524.659 227.176C523.464 229.352 522.867 231.827 522.867 234.6C522.867 237.373 523.464 239.848 524.659 242.024C525.896 244.2 527.582 245.907 529.715 247.144C531.848 248.339 534.238 248.936 536.883 248.936ZM635.811 212.2V238.632C635.811 244.861 634.126 249.619 630.755 252.904C627.384 256.147 622.606 257.768 616.419 257.768C613.347 257.768 610.595 257.32 608.163 256.424C605.774 255.528 603.811 254.269 602.275 252.648C600.696 254.269 598.712 255.528 596.323 256.424C593.934 257.32 591.224 257.768 588.195 257.768C582.008 257.768 577.23 256.147 573.859 252.904C570.488 249.619 568.803 244.861 568.803 238.632V212.2H579.171V238.312C579.171 241.939 579.918 244.627 581.411 246.376C582.904 248.083 585.123 248.936 588.067 248.936C594.083 248.936 597.091 245.395 597.091 238.312V212.2H607.459V238.312C607.459 245.395 610.488 248.936 616.547 248.936C622.435 248.936 625.379 245.395 625.379 238.312V212.2H635.811ZM682.67 253.16C680.537 254.611 677.849 255.741 674.606 256.552C671.406 257.363 667.993 257.768 664.366 257.768C659.843 257.768 656.003 257.213 652.846 256.104C649.689 254.952 647.299 253.373 645.678 251.368C644.057 249.32 643.246 246.995 643.246 244.392C643.246 242.003 643.907 239.891 645.23 238.056C646.553 236.221 648.366 234.856 650.67 233.96C648.921 233.021 647.555 231.741 646.574 230.12C645.635 228.499 645.166 226.685 645.166 224.68C645.166 222.248 645.913 220.029 647.406 218.024C648.899 216.019 651.161 214.419 654.19 213.224C657.219 212.029 660.931 211.432 665.326 211.432C668.227 211.432 671.065 211.731 673.838 212.328C676.611 212.883 679.022 213.651 681.07 214.632L678.19 222.568C674.265 220.733 670.105 219.816 665.71 219.816C662.382 219.816 659.865 220.328 658.158 221.352C656.494 222.333 655.662 223.677 655.662 225.384C655.662 226.963 656.217 228.179 657.326 229.032C658.478 229.843 660.206 230.248 662.51 230.248H674.734V238.44H661.87C659.267 238.44 657.262 238.888 655.854 239.784C654.446 240.68 653.742 241.981 653.742 243.688C653.742 245.48 654.638 246.888 656.43 247.912C658.265 248.893 661.059 249.384 664.814 249.384C667.459 249.384 670.105 249.043 672.75 248.36C675.395 247.635 677.635 246.632 679.47 245.352L682.67 253.16ZM717.294 257L708.654 244.52H708.142H699.118V257H688.75V212.2H708.142C712.11 212.2 715.544 212.861 718.446 214.184C721.39 215.507 723.651 217.384 725.23 219.816C726.808 222.248 727.598 225.128 727.598 228.456C727.598 231.784 726.787 234.664 725.166 237.096C723.587 239.485 721.326 241.32 718.382 242.6L728.43 257H717.294ZM717.102 228.456C717.102 225.939 716.291 224.019 714.67 222.696C713.048 221.331 710.68 220.648 707.566 220.648H699.118V236.264H707.566C710.68 236.264 713.048 235.581 714.67 234.216C716.291 232.851 717.102 230.931 717.102 228.456Z" fill="#F6F6FE" fill-opacity="0.32"/>
<path d="M38.208 220.704C40.768 221.515 42.7733 222.88 44.224 224.8C45.6747 226.677 46.4 229.003 46.4 231.776C46.4 235.701 44.864 238.731 41.792 240.864C38.7627 242.955 34.3253 244 28.48 244H5.312V199.2H27.2C32.6613 199.2 36.8427 200.245 39.744 202.336C42.688 204.427 44.16 207.264 44.16 210.848C44.16 213.024 43.6267 214.965 42.56 216.672C41.536 218.379 40.0853 219.723 38.208 220.704ZM15.616 207.008V217.568H25.92C28.48 217.568 30.4213 217.12 31.744 216.224C33.0667 215.328 33.728 214.005 33.728 212.256C33.728 210.507 33.0667 209.205 31.744 208.352C30.4213 207.456 28.48 207.008 25.92 207.008H15.616ZM27.712 236.192C30.4427 236.192 32.4907 235.744 33.856 234.848C35.264 233.952 35.968 232.565 35.968 230.688C35.968 226.976 33.216 225.12 27.712 225.12H15.616V236.192H27.712ZM90.8575 240.16C88.7242 241.611 86.0362 242.741 82.7935 243.552C79.5935 244.363 76.1802 244.768 72.5535 244.768C68.0308 244.768 64.1908 244.213 61.0335 243.104C57.8762 241.952 55.4868 240.373 53.8655 238.368C52.2442 236.32 51.4335 233.995 51.4335 231.392C51.4335 229.003 52.0948 226.891 53.4175 225.056C54.7402 223.221 56.5535 221.856 58.8575 220.96C57.1082 220.021 55.7428 218.741 54.7615 217.12C53.8228 215.499 53.3535 213.685 53.3535 211.68C53.3535 209.248 54.1002 207.029 55.5935 205.024C57.0868 203.019 59.3482 201.419 62.3775 200.224C65.4068 199.029 69.1188 198.432 73.5135 198.432C76.4148 198.432 79.2522 198.731 82.0255 199.328C84.7988 199.883 87.2095 200.651 89.2575 201.632L86.3775 209.568C82.4522 207.733 78.2922 206.816 73.8975 206.816C70.5695 206.816 68.0522 207.328 66.3455 208.352C64.6815 209.333 63.8495 210.677 63.8495 212.384C63.8495 213.963 64.4042 215.179 65.5135 216.032C66.6655 216.843 68.3935 217.248 70.6975 217.248H82.9215V225.44H70.0575C67.4548 225.44 65.4495 225.888 64.0415 226.784C62.6335 227.68 61.9295 228.981 61.9295 230.688C61.9295 232.48 62.8255 233.888 64.6175 234.912C66.4522 235.893 69.2468 236.384 73.0015 236.384C75.6468 236.384 78.2922 236.043 80.9375 235.36C83.5828 234.635 85.8228 233.632 87.6575 232.352L90.8575 240.16ZM115.472 198.432C119.611 198.432 123.216 199.243 126.288 200.864C129.36 202.485 131.749 204.875 133.456 208.032C135.163 211.189 136.016 215.008 136.016 219.488V244H125.648V233.248H105.168V244H94.928V219.488C94.928 215.008 95.7813 211.189 97.488 208.032C99.1947 204.875 101.584 202.485 104.656 200.864C107.728 199.243 111.333 198.432 115.472 198.432ZM125.648 224.928V218.528C125.648 214.816 124.731 212.021 122.896 210.144C121.061 208.224 118.565 207.264 115.408 207.264C112.208 207.264 109.691 208.224 107.856 210.144C106.064 212.021 105.168 214.816 105.168 218.528V224.928H125.648ZM186.314 199.2V244H176.266V238.56C173.194 242.699 168.671 244.768 162.698 244.768C157.407 244.768 153.268 243.104 150.282 239.776C147.338 236.405 145.866 231.627 145.866 225.44V199.2H156.234V225.12C156.234 228.704 157.066 231.413 158.73 233.248C160.436 235.04 162.74 235.936 165.642 235.936C168.756 235.936 171.252 234.976 173.13 233.056C175.007 231.093 175.946 228.213 175.946 224.416V199.2H186.314ZM229.577 211.744C225.737 209.525 221.62 208.096 217.225 207.456V244H206.857V207.456C202.462 208.096 198.324 209.525 194.441 211.744L190.921 204C193.993 202.165 197.321 200.779 200.905 199.84C204.489 198.901 208.18 198.432 211.977 198.432C215.817 198.432 219.529 198.901 223.113 199.84C226.74 200.779 230.068 202.165 233.097 204L229.577 211.744ZM277.75 199.2V229.984C277.75 236.725 275.872 241.888 272.118 245.472C268.363 249.099 263.179 250.912 256.566 250.912C252.768 250.912 249.291 250.379 246.134 249.312C242.976 248.288 240.288 246.816 238.07 244.896L242.102 237.216C246.155 240.501 250.891 242.144 256.31 242.144C260.064 242.144 262.838 241.205 264.63 239.328C266.464 237.408 267.382 234.464 267.382 230.496V227.744C264.395 231.413 260.171 233.248 254.71 233.248C249.035 233.248 244.662 231.648 241.59 228.448C238.56 225.205 237.046 220.555 237.046 214.496V199.2H247.414V213.856C247.414 217.355 248.246 220 249.91 221.792C251.574 223.584 253.92 224.48 256.95 224.48C260.15 224.48 262.688 223.541 264.566 221.664C266.443 219.787 267.382 216.949 267.382 213.152V199.2H277.75Z" fill="#F6F6FE" fill-opacity="0.32"/>
<path d="M95.032 102.768C91.4907 102.768 88.056 102.299 84.728 101.36C81.4427 100.379 78.7973 99.12 76.792 97.584L80.312 89.776C82.232 91.184 84.5147 92.3147 87.16 93.168C89.8053 94.0213 92.4507 94.448 95.096 94.448C98.04 94.448 100.216 94.0213 101.624 93.168C103.032 92.272 103.736 91.0987 103.736 89.648C103.736 88.5813 103.309 87.7067 102.456 87.024C101.645 86.2987 100.579 85.7227 99.256 85.296C97.976 84.8693 96.2267 84.4 94.008 83.888C90.5947 83.0773 87.8 82.2667 85.624 81.456C83.448 80.6453 81.5707 79.344 79.992 77.552C78.456 75.76 77.688 73.3707 77.688 70.384C77.688 67.7813 78.392 65.4347 79.8 63.344C81.208 61.2107 83.32 59.5253 86.136 58.288C88.9947 57.0507 92.472 56.432 96.568 56.432C99.4267 56.432 102.221 56.7733 104.952 57.456C107.683 58.1387 110.072 59.12 112.12 60.4L108.92 68.272C104.781 65.9253 100.643 64.752 96.504 64.752C93.6027 64.752 91.448 65.2213 90.04 66.16C88.6747 67.0987 87.992 68.336 87.992 69.872C87.992 71.408 88.7813 72.56 90.36 73.328C91.9813 74.0533 94.4347 74.7787 97.72 75.504C101.133 76.3147 103.928 77.1253 106.104 77.936C108.28 78.7467 110.136 80.0267 111.672 81.776C113.251 83.5253 114.04 85.8933 114.04 88.88C114.04 91.44 113.315 93.7867 111.864 95.92C110.456 98.0107 108.323 99.6747 105.464 100.912C102.605 102.149 99.128 102.768 95.032 102.768ZM157.733 98.16C155.599 99.6107 152.911 100.741 149.669 101.552C146.469 102.363 143.055 102.768 139.429 102.768C134.906 102.768 131.066 102.213 127.909 101.104C124.751 99.952 122.362 98.3733 120.741 96.368C119.119 94.32 118.309 91.9947 118.309 89.392C118.309 87.0027 118.97 84.8907 120.293 83.056C121.615 81.2213 123.429 79.856 125.733 78.96C123.983 78.0213 122.618 76.7413 121.637 75.12C120.698 73.4987 120.229 71.6853 120.229 69.68C120.229 67.248 120.975 65.0293 122.469 63.024C123.962 61.0187 126.223 59.4187 129.253 58.224C132.282 57.0293 135.994 56.432 140.389 56.432C143.29 56.432 146.127 56.7307 148.901 57.328C151.674 57.8827 154.085 58.6507 156.133 59.632L153.253 67.568C149.327 65.7333 145.167 64.816 140.773 64.816C137.445 64.816 134.927 65.328 133.221 66.352C131.557 67.3333 130.725 68.6773 130.725 70.384C130.725 71.9627 131.279 73.1787 132.389 74.032C133.541 74.8427 135.269 75.248 137.573 75.248H149.797V83.44H136.933C134.33 83.44 132.325 83.888 130.917 84.784C129.509 85.68 128.805 86.9813 128.805 88.688C128.805 90.48 129.701 91.888 131.493 92.912C133.327 93.8933 136.122 94.384 139.877 94.384C142.522 94.384 145.167 94.0427 147.812 93.36C150.458 92.6347 152.698 91.632 154.533 90.352L157.733 98.16ZM184.315 102.768C179.749 102.768 175.611 101.787 171.899 99.824C168.229 97.8187 165.328 95.0667 163.195 91.568C161.104 88.0267 160.059 84.0373 160.059 79.6C160.059 75.1627 161.104 71.1947 163.195 67.696C165.328 64.1547 168.229 61.4027 171.899 59.44C175.611 57.4347 179.771 56.432 184.379 56.432C188.261 56.432 191.76 57.1147 194.875 58.48C198.032 59.8453 200.677 61.808 202.811 64.368L196.155 70.512C193.125 67.0133 189.371 65.264 184.891 65.264C182.117 65.264 179.643 65.8827 177.467 67.12C175.291 68.3147 173.584 70 172.347 72.176C171.152 74.352 170.555 76.8267 170.555 79.6C170.555 82.3733 171.152 84.848 172.347 87.024C173.584 89.2 175.291 90.9067 177.467 92.144C179.643 93.3387 182.117 93.936 184.891 93.936C189.371 93.936 193.125 92.1653 196.155 88.624L202.811 94.768C200.677 97.3707 198.032 99.3547 194.875 100.72C191.717 102.085 188.197 102.768 184.315 102.768ZM238.356 102L229.716 89.52H229.204H220.18V102H209.812V57.2H229.204C233.172 57.2 236.607 57.8613 239.508 59.184C242.452 60.5067 244.713 62.384 246.292 64.816C247.871 67.248 248.66 70.128 248.66 73.456C248.66 76.784 247.849 79.664 246.228 82.096C244.649 84.4853 242.388 86.32 239.444 87.6L249.492 102H238.356ZM238.164 73.456C238.164 70.9387 237.353 69.0187 235.732 67.696C234.111 66.3307 231.743 65.648 228.628 65.648H220.18V81.264H228.628C231.743 81.264 234.111 80.5813 235.732 79.216C237.353 77.8507 238.164 75.9307 238.164 73.456ZM293.483 98.16C291.349 99.6107 288.661 100.741 285.419 101.552C282.219 102.363 278.805 102.768 275.179 102.768C270.656 102.768 266.816 102.213 263.659 101.104C260.501 99.952 258.112 98.3733 256.491 96.368C254.869 94.32 254.059 91.9947 254.059 89.392C254.059 87.0027 254.72 84.8907 256.043 83.056C257.365 81.2213 259.179 79.856 261.483 78.96C259.733 78.0213 258.368 76.7413 257.387 75.12C256.448 73.4987 255.979 71.6853 255.979 69.68C255.979 67.248 256.725 65.0293 258.219 63.024C259.712 61.0187 261.973 59.4187 265.003 58.224C268.032 57.0293 271.744 56.432 276.139 56.432C279.04 56.432 281.877 56.7307 284.651 57.328C287.424 57.8827 289.835 58.6507 291.883 59.632L289.003 67.568C285.077 65.7333 280.917 64.816 276.523 64.816C273.195 64.816 270.677 65.328 268.971 66.352C267.307 67.3333 266.475 68.6773 266.475 70.384C266.475 71.9627 267.029 73.1787 268.139 74.032C269.291 74.8427 271.019 75.248 273.323 75.248H285.547V83.44H272.683C270.08 83.44 268.075 83.888 266.667 84.784C265.259 85.68 264.555 86.9813 264.555 88.688C264.555 90.48 265.451 91.888 267.243 92.912C269.077 93.8933 271.872 94.384 275.627 94.384C278.272 94.384 280.917 94.0427 283.562 93.36C286.208 92.6347 288.448 91.632 290.283 90.352L293.483 98.16ZM331.827 69.744C327.987 67.5253 323.87 66.096 319.475 65.456V102H309.107V65.456C304.712 66.096 300.574 67.5253 296.691 69.744L293.171 62C296.243 60.1653 299.571 58.7787 303.155 57.84C306.739 56.9013 310.43 56.432 314.227 56.432C318.067 56.432 321.779 56.9013 325.363 57.84C328.99 58.7787 332.318 60.1653 335.347 62L331.827 69.744Z" fill="#F6F6FE" fill-opacity="0.32"/>
<path fill-rule="evenodd" clip-rule="evenodd" d="M599 70C615.569 70 629 56.5685 629 40C629 23.4315 615.569 10 599 10C582.431 10 569 23.4315 569 40C569 56.5685 582.431 70 599 70ZM596.57 35.2495C594.794 32.8678 591.341 28.2157 590.153 26.5292C588.605 24.3311 589.047 21.6934 592.365 19.0556C595.019 16.9455 597.894 14.806 599 14C600.106 14.806 602.981 16.9455 605.635 19.0556C608.953 21.6934 609.395 24.3311 607.847 26.5292C606.659 28.2157 603.206 32.8679 601.43 35.2495C600.888 34.9702 600.292 34.7813 599.662 34.703V29.8263C599.662 29.4621 599.365 29.1669 599 29.1669C598.635 29.1669 598.338 29.4621 598.338 29.8263V34.703C597.708 34.7813 597.112 34.9702 596.57 35.2495ZM593.635 40.9334C590.829 41.8932 585.354 43.7516 583.389 44.3644C580.827 45.163 578.464 43.9256 576.99 39.9437C575.811 36.7582 574.672 33.3525 574.25 32.0479C575.355 31.2414 578.271 29.158 581.091 27.2766C584.616 24.9249 587.252 25.3178 588.856 27.4749C590.087 29.13 593.429 33.8636 595.136 36.2953C594.704 36.7258 594.341 37.2363 594.072 37.8139L589.451 36.3069C589.106 36.1944 588.735 36.3859 588.622 36.7347C588.509 37.0835 588.697 37.4575 589.042 37.57L593.663 39.077C593.543 39.703 593.537 40.3303 593.635 40.9334ZM598.198 56.3328C598.225 54.2676 598.156 48.4669 598.114 45.4921C597.512 45.3986 596.919 45.1998 596.363 44.8913L593.507 48.8366C593.294 49.1312 592.882 49.1953 592.586 48.9797C592.29 48.7642 592.224 48.3506 592.437 48.0559L595.293 44.1106C594.829 43.6753 594.457 43.1709 594.183 42.6255C591.351 43.5043 585.833 45.2309 583.884 45.8945C581.344 46.7595 580.157 49.1544 581.296 53.2455C582.208 56.5185 583.281 59.9456 583.704 61.25C585.07 61.2503 588.649 61.2157 592.032 61.0743C596.261 60.8975 598.164 59.0245 598.198 56.3328ZM603.817 42.6255C606.649 43.5043 612.167 45.2309 614.116 45.8945C616.656 46.7595 617.843 49.1544 616.704 53.2455C615.792 56.5185 614.719 59.9456 614.296 61.25C612.93 61.2503 609.351 61.2157 605.968 61.0743C601.739 60.8975 599.836 59.0245 599.802 56.3328C599.775 54.2676 599.844 48.4669 599.886 45.4921C600.488 45.3986 601.081 45.1998 601.637 44.8913L604.493 48.8366C604.706 49.1312 605.118 49.1953 605.414 48.9797C605.71 48.7642 605.776 48.3506 605.563 48.0559L602.707 44.1106C603.171 43.6753 603.543 43.1709 603.817 42.6255ZM609.144 27.4749C607.913 29.13 604.571 33.8636 602.864 36.2953C603.296 36.7258 603.659 37.2363 603.928 37.8139L608.549 36.307C608.894 36.1944 609.265 36.3859 609.378 36.7347C609.491 37.0835 609.303 37.4575 608.958 37.57L604.337 39.077C604.457 39.703 604.463 40.3303 604.365 40.9334C607.171 41.8932 612.646 43.7516 614.611 44.3644C617.173 45.163 619.536 43.9256 621.01 39.9437C622.189 36.7582 623.328 33.3525 623.75 32.0479C622.645 31.2414 619.729 29.158 616.909 27.2766C613.384 24.9249 610.748 25.3178 609.144 27.4749ZM602.97 40.1192C602.97 42.3196 601.192 44.1034 599 44.1034C596.808 44.1034 595.03 42.3196 595.03 40.1192C595.03 37.9187 596.808 36.1349 599 36.1349C601.192 36.1349 602.97 37.9187 602.97 40.1192Z" fill="#AE0F0A"/>
<path d="M71.7357 160.99C68.1976 156.305 61.8678 147.89 61.483 147.143C60.9472 146.103 60.9472 145.284 60.9472 144.271C60.9472 139.887 64.5033 136.333 68.8901 136.333C71.3468 136.333 73.543 137.448 75 139.199C76.457 137.448 78.6532 136.333 81.1099 136.333C85.4966 136.333 89.0528 139.887 89.0528 144.271C89.0528 145.284 89.0528 146.103 88.5169 147.143C88.1321 147.89 81.8024 156.305 78.2642 160.99C77.5514 160.594 76.7587 160.323 75.9165 160.208V154.651C75.9165 154.145 75.5061 153.735 75 153.735C74.4938 153.735 74.0835 154.145 74.0835 154.651V160.208C73.2412 160.323 72.4486 160.594 71.7357 160.99Z" fill="#AE0F0A"/>
<path d="M68.4025 168.15C62.8504 170.065 52.8858 173.481 52.056 173.616C50.9005 173.804 50.1211 173.55 49.1572 173.237C44.9852 171.883 42.702 167.405 44.0576 163.236C44.8167 160.901 46.5561 159.158 48.6726 158.314C47.4566 156.388 47.0745 153.956 47.8337 151.622C49.1893 147.452 53.6703 145.171 57.8423 146.525C58.8062 146.838 59.5856 147.091 60.41 147.922C61.002 148.519 67.0545 157.135 70.42 161.945C69.8222 162.5 69.3197 163.17 68.9502 163.935L63.6615 162.218C63.1801 162.062 62.663 162.325 62.5066 162.806C62.3502 163.287 62.6136 163.804 63.095 163.96L68.3838 165.677C68.2327 166.513 68.2454 167.35 68.4025 168.15Z" fill="#AE0F0A"/>
<path d="M74.1868 173.531C74.2935 179.4 74.4648 189.926 74.3368 190.756C74.1585 191.912 73.6768 192.575 73.0811 193.394C70.5026 196.941 65.5354 197.727 61.9864 195.15C59.9989 193.707 58.8777 191.515 58.7287 189.243C56.5203 189.804 54.0879 189.415 52.1004 187.972C48.5514 185.396 47.7647 180.432 50.3431 176.885C50.9389 176.066 51.4205 175.403 52.4659 174.876C53.2166 174.498 63.287 171.408 68.9051 169.696C69.2486 170.436 69.7306 171.12 70.3445 171.708L67.0759 176.204C66.7784 176.613 66.8692 177.186 67.2787 177.483C67.6881 177.78 68.2613 177.69 68.5588 177.28L71.8274 172.785C72.5763 173.186 73.3768 173.433 74.1868 173.531Z" fill="#AE0F0A"/>
<path d="M81.0948 169.696C86.713 171.408 96.7834 174.498 97.5341 174.876C98.5794 175.403 99.0611 176.066 99.6568 176.885C102.235 180.432 101.449 185.396 97.8996 187.972C95.9121 189.415 93.4797 189.804 91.2712 189.243C91.1223 191.515 90.0011 193.707 88.0135 195.15C84.4646 197.727 79.4974 196.941 76.9189 193.394C76.3232 192.575 75.8415 191.912 75.6632 190.756C75.5351 189.925 75.7064 179.4 75.8132 173.531C76.6232 173.433 77.4236 173.186 78.1725 172.785L81.4412 177.28C81.7387 177.69 82.3118 177.78 82.7213 177.483C83.1308 177.186 83.2216 176.613 82.9241 176.204L79.6555 171.708C80.2694 171.12 80.7514 170.436 81.0948 169.696Z" fill="#AE0F0A"/>
<path d="M79.58 161.945C82.9455 157.135 88.998 148.519 89.59 147.922C90.4144 147.091 91.1938 146.838 92.1577 146.525C96.3297 145.171 100.811 147.452 102.166 151.622C102.925 153.956 102.543 156.388 101.327 158.314C103.444 159.158 105.183 160.901 105.942 163.236C107.298 167.405 105.015 171.883 100.843 173.237C99.8789 173.55 99.0995 173.804 97.9439 173.616C97.1141 173.481 87.1496 170.065 81.5974 168.15C81.7546 167.35 81.7673 166.513 81.6162 165.677L86.9049 163.96C87.3863 163.804 87.6498 163.287 87.4934 162.806C87.3369 162.325 86.8199 162.062 86.3385 162.218L81.0498 163.935C80.6803 163.17 80.1777 162.5 79.58 161.945Z" fill="#AE0F0A"/>
<path d="M75 171.747C77.6995 171.747 79.8879 169.56 79.8879 166.863C79.8879 164.165 77.6995 161.978 75 161.978C72.3005 161.978 70.1121 164.165 70.1121 166.863C70.1121 169.56 72.3005 171.747 75 171.747Z" fill="#AE0F0A"/>
<path d="M445.401 282.999L449.819 278.581C451.694 276.706 451.712 273.624 449.529 272.12C444.598 268.721 438.544 267 432 267C425.483 267 419.451 268.893 414.531 272.343C412.33 273.886 412.378 277.017 414.315 278.88L418.599 282.999C420 279.75 426.532 277.2 432 277.2C437.468 277.2 444.45 279.75 445.401 282.999Z" fill="#AE0F0A"/>
<path d="M446.001 310.401L450.419 314.819C452.294 316.694 455.376 316.712 456.88 314.529C460.279 309.598 462 303.544 462 297C462 290.483 460.107 284.451 456.657 279.531C455.114 277.33 451.983 277.378 450.12 279.315L446.001 283.599C449.25 285 451.8 291.532 451.8 297C451.8 302.468 449.25 309.45 446.001 310.401Z" fill="#AE0F0A"/>
<path d="M421.75 310.35C421.75 309.604 421.291 309 420.725 309C420.159 309 419.7 309.604 419.7 310.35C419.7 310.839 419.985 311.255 420.088 311.405C420.112 311.441 420.127 311.462 420.124 311.465C423.333 314.232 427.477 315.9 432 315.9C436.523 315.9 440.667 314.232 443.876 311.465C443.873 311.462 443.888 311.441 443.912 311.405C444.015 311.255 444.3 310.839 444.3 310.35C444.3 309.604 443.841 309 443.275 309C442.709 309 442.25 309.604 442.25 310.35C442.25 310.752 442.384 311.113 442.595 311.361C439.65 313.645 435.979 315 432 315C428.021 315 424.35 313.645 421.405 311.361C421.616 311.113 421.75 310.752 421.75 310.35Z" fill="#AE0F0A"/>
<path d="M414.181 315.419L418.599 311.001C419.55 314.25 426.532 316.8 432 316.8C437.468 316.8 444 314.25 445.401 311.001L449.685 315.12C451.622 316.983 451.67 320.114 449.469 321.657C444.549 325.107 438.517 327 432 327C425.456 327 419.402 325.279 414.471 321.88C412.288 320.376 412.306 317.294 414.181 315.419Z" fill="#AE0F0A"/>
<path d="M445.35 307.25C444.604 307.25 444 307.709 444 308.275C444 308.841 444.604 309.3 445.35 309.3C445.839 309.3 446.255 309.015 446.405 308.912C446.441 308.888 446.462 308.873 446.465 308.876C449.232 305.667 450.9 301.523 450.9 297C450.9 292.477 449.232 288.333 446.465 285.124C446.462 285.127 446.441 285.112 446.405 285.088C446.255 284.985 445.839 284.7 445.35 284.7C444.604 284.7 444 285.159 444 285.725C444 286.291 444.604 286.75 445.35 286.75C445.752 286.75 446.113 286.616 446.361 286.405C448.645 289.35 450 293.021 450 297C450 300.979 448.645 304.65 446.361 307.595C446.113 307.384 445.752 307.25 445.35 307.25Z" fill="#AE0F0A"/>
<path d="M442.25 283.65C442.25 284.396 442.709 285 443.275 285C443.841 285 444.3 284.396 444.3 283.65C444.3 283.161 444.015 282.745 443.912 282.595C443.888 282.559 443.873 282.538 443.876 282.535C440.667 279.768 436.523 278.1 432 278.1C427.477 278.1 423.333 279.768 420.124 282.535C420.127 282.538 420.112 282.559 420.088 282.595C419.985 282.745 419.7 283.161 419.7 283.65C419.7 284.396 420.159 285 420.725 285C421.291 285 421.75 284.396 421.75 283.65C421.75 283.248 421.616 282.887 421.405 282.639C424.35 280.355 428.021 279 432 279C435.979 279 439.65 280.355 442.595 282.639C442.384 282.887 442.25 283.248 442.25 283.65Z" fill="#AE0F0A"/>
<path d="M417.999 283.599L413.581 279.181C411.706 277.306 408.624 277.288 407.12 279.471C403.721 284.402 402 290.456 402 297C402 303.517 403.893 309.549 407.343 314.469C408.886 316.67 412.017 316.622 413.88 314.685L417.999 310.401C414.75 309 412.2 302.468 412.2 297C412.2 291.532 414.75 284.55 417.999 283.599Z" fill="#AE0F0A"/>
<path d="M418.65 286.75C419.396 286.75 420 286.291 420 285.725C420 285.159 419.396 284.7 418.65 284.7C418.161 284.7 417.745 284.985 417.595 285.088C417.559 285.112 417.538 285.127 417.535 285.124C414.768 288.333 413.1 292.477 413.1 297C413.1 301.523 414.768 305.667 417.535 308.876C417.538 308.873 417.559 308.888 417.595 308.912C417.745 309.015 418.161 309.3 418.65 309.3C419.396 309.3 420 308.841 420 308.275C420 307.709 419.396 307.25 418.65 307.25C418.248 307.25 417.887 307.384 417.639 307.595C415.355 304.65 414 300.979 414 297C414 293.021 415.355 289.35 417.639 286.405C417.887 286.616 418.248 286.75 418.65 286.75Z" fill="#AE0F0A"/>
</svg>
