<svg width="163" height="30" viewBox="0 0 163 30" fill="none" xmlns="http://www.w3.org/2000/svg">
<path d="M21.24 14.56H27.16V29H22.28V27.32C20.3333 28.76 17.8267 29.48 14.76 29.48C12.1733 29.48 9.8 28.92 7.64 27.8C5.48 26.68 3.76 25.0533 2.48 22.92C1.2 20.76 0.56 18.2 0.56 15.24C0.56 12.3867 1.21333 9.85333 2.52 7.64C3.85333 5.4 5.69333 3.65333 8.04 2.4C10.3867 1.14667 13.0267 0.52 15.96 0.52C18.4133 0.52 20.64 0.933332 22.64 1.76C24.64 2.58666 26.32 3.78667 27.68 5.36L23.52 9.2C21.52 7.09333 19.1067 6.04 16.28 6.04C14.4933 6.04 12.9067 6.42667 11.52 7.2C10.1333 7.94667 9.05333 9.01333 8.28 10.4C7.50667 11.7867 7.12 13.3867 7.12 15.2C7.12 17.0933 7.49333 18.7067 8.24 20.04C9.01333 21.3733 10.04 22.3867 11.32 23.08C12.6 23.7467 14 24.08 15.52 24.08C17.7867 24.08 19.6933 23.44 21.24 22.16V14.56ZM56.0594 26.6C54.726 27.5067 53.046 28.2133 51.0194 28.72C49.0194 29.2267 46.886 29.48 44.6194 29.48C41.7927 29.48 39.3927 29.1333 37.4194 28.44C35.446 27.72 33.9527 26.7333 32.9394 25.48C31.926 24.2 31.4194 22.7467 31.4194 21.12C31.4194 19.6267 31.8327 18.3067 32.6594 17.16C33.486 16.0133 34.6194 15.16 36.0594 14.6C34.966 14.0133 34.1127 13.2133 33.4994 12.2C32.9127 11.1867 32.6194 10.0533 32.6194 8.8C32.6194 7.28 33.086 5.89333 34.0194 4.64C34.9527 3.38667 36.366 2.38667 38.2594 1.64C40.1527 0.893333 42.4727 0.52 45.2194 0.52C47.0327 0.52 48.806 0.706666 50.5394 1.08C52.2727 1.42666 53.7794 1.90666 55.0594 2.52L53.2594 7.48C50.806 6.33333 48.206 5.76 45.4594 5.76C43.3794 5.76 41.806 6.08 40.7394 6.72C39.6994 7.33333 39.1794 8.17333 39.1794 9.24C39.1794 10.2267 39.526 10.9867 40.2194 11.52C40.9394 12.0267 42.0194 12.28 43.4594 12.28H51.0994V17.4H43.0594C41.4327 17.4 40.1794 17.68 39.2994 18.24C38.4194 18.8 37.9794 19.6133 37.9794 20.68C37.9794 21.8 38.5394 22.68 39.6594 23.32C40.806 23.9333 42.5527 24.24 44.8994 24.24C46.5527 24.24 48.206 24.0267 49.8594 23.6C51.5127 23.1467 52.9127 22.52 54.0594 21.72L56.0594 26.6ZM69.4591 6.2V23.8H74.2991V29H58.0991V23.8H62.9791V6.2H58.0991V0.999998H74.2991V6.2H69.4591ZM88.395 29.48C86.1817 29.48 84.035 29.1867 81.955 28.6C79.9017 27.9867 78.2483 27.2 76.995 26.24L79.195 21.36C80.395 22.24 81.8217 22.9467 83.475 23.48C85.1283 24.0133 86.7817 24.28 88.435 24.28C90.275 24.28 91.635 24.0133 92.515 23.48C93.395 22.92 93.835 22.1867 93.835 21.28C93.835 20.6133 93.5683 20.0667 93.035 19.64C92.5283 19.1867 91.8617 18.8267 91.035 18.56C90.235 18.2933 89.1417 18 87.755 17.68C85.6217 17.1733 83.875 16.6667 82.515 16.16C81.155 15.6533 79.9817 14.84 78.995 13.72C78.035 12.6 77.555 11.1067 77.555 9.24C77.555 7.61333 77.995 6.14667 78.875 4.84C79.755 3.50667 81.075 2.45333 82.835 1.68C84.6217 0.906666 86.795 0.52 89.355 0.52C91.1417 0.52 92.8883 0.733332 94.595 1.16C96.3017 1.58667 97.795 2.2 99.075 3L97.075 7.92C94.4883 6.45333 91.9017 5.72 89.315 5.72C87.5017 5.72 86.155 6.01333 85.275 6.6C84.4217 7.18667 83.995 7.96 83.995 8.92C83.995 9.88 84.4883 10.6 85.475 11.08C86.4883 11.5333 88.0217 11.9867 90.075 12.44C92.2083 12.9467 93.955 13.4533 95.315 13.96C96.675 14.4667 97.835 15.2667 98.795 16.36C99.7817 17.4533 100.275 18.9333 100.275 20.8C100.275 22.4 99.8217 23.8667 98.915 25.2C98.035 26.5067 96.7017 27.5467 94.915 28.32C93.1283 29.0933 90.955 29.48 88.395 29.48ZM130.383 0.999998V29H123.903V17.52H111.183V29H104.703V0.999998H111.183V12.04H123.903V0.999998H130.383Z" fill="#F6F6FE"/>
<path d="M149.608 0.52C152.194 0.52 154.448 1.02667 156.368 2.04C158.288 3.05333 159.781 4.54667 160.848 6.52C161.914 8.49333 162.448 10.88 162.448 13.68V29H155.968V22.28H143.168V29H136.768V13.68C136.768 10.88 137.301 8.49333 138.368 6.52C139.434 4.54667 140.928 3.05333 142.848 2.04C144.768 1.02667 147.021 0.52 149.608 0.52ZM155.968 17.08V13.08C155.968 10.76 155.394 9.01333 154.247 7.84C153.101 6.64 151.541 6.04 149.568 6.04C147.568 6.04 145.994 6.64 144.848 7.84C143.728 9.01333 143.168 10.76 143.168 13.08V17.08H155.968Z" fill="#AE0F0A"/>
</svg>
